<?xml version="1.0" encoding="utf-8"?>
<!-- Generator: Adobe Illustrator 16.0.0, SVG Export Plug-In . SVG Version: 6.00 Build 0)  -->
<!DOCTYPE svg PUBLIC "-//W3C//DTD SVG 1.1//EN" "http://www.w3.org/Graphics/SVG/1.1/DTD/svg11.dtd">
<svg version="1.1" id="Capa_1" xmlns="http://www.w3.org/2000/svg" xmlns:xlink="http://www.w3.org/1999/xlink" x="0px" y="0px"
	 width="1200px" height="800px" viewBox="0 0 1200 800" enable-background="new 0 0 1200 800" xml:space="preserve">
<g>
	<path fill="#E5E5E5" d="M54.722,49c-2.228,0-3.139-1.392-2.025-3.32l13.486-23.266c1.114-1.929,2.936-1.883,4.05,0.046
		l13.486,23.196C84.833,47.585,83.922,49,81.694,49H54.722z"/>
</g>
<g>
	<path fill="#E5E5E5" d="M165.378,135.388c-1.71-1.427-1.398-3.223,0.693-3.99l25.323-9.291c2.091-0.767,3.49,0.4,3.109,2.595
		l-4.615,26.575c-0.381,2.195-2.092,2.822-3.802,1.395L165.378,135.388z"/>
</g>
<g>
	<path fill="#E5E5E5" d="M239.781,54.175c-1.902,1.16-3.501,0.287-3.555-1.94l-0.652-26.965c-0.054-2.227,1.502-3.176,3.458-2.109
		l23.678,12.919c1.956,1.066,2,2.889,0.098,4.048L239.781,54.175z"/>
</g>
<g>
	<path fill="#E5E5E5" d="M78.547,292.57c-1.989,1.003-3.513,0.005-3.388-2.219l1.52-26.93c0.125-2.224,1.752-3.045,3.616-1.824
		l22.562,14.781c1.863,1.221,1.761,3.04-0.228,4.043L78.547,292.57z"/>
</g>
<g>
	<path fill="#E5E5E5" d="M183.866,245.92c-1.679,1.464-3.403,0.873-3.832-1.313l-5.185-26.47c-0.428-2.186,0.945-3.383,3.052-2.661
		l25.517,8.743c2.107,0.722,2.458,2.511,0.778,3.975L183.866,245.92z"/>
</g>
<g>
	<path fill="#E5E5E5" d="M278.969,116.317c-1.314-1.798-0.578-3.465,1.637-3.705l26.816-2.896c2.214-0.239,3.29,1.232,2.39,3.27
		l-10.899,24.672c-0.9,2.038-2.712,2.233-4.026,0.435L278.969,116.317z"/>
</g>
<g>
	<path fill="#E5E5E5" d="M351.246,58.028c-1.681,1.461-3.404,0.868-3.829-1.318l-5.15-26.477c-0.425-2.186,0.95-3.382,3.056-2.657
		l25.505,8.779c2.106,0.725,2.454,2.514,0.773,3.975L351.246,58.028z"/>
</g>
<g>
	<path fill="#E5E5E5" d="M97.487,378.637c-1.79,1.326-3.462,0.6-3.714-1.613l-3.062-26.799c-0.252-2.213,1.212-3.297,3.255-2.41
		l24.739,10.748c2.043,0.888,2.25,2.698,0.459,4.023L97.487,378.637z"/>
</g>
<g>
	<path fill="#E5E5E5" d="M214.587,314.962c-1.985-1.011-2.081-2.831-0.213-4.044l22.617-14.696c1.868-1.213,3.492-0.387,3.609,1.838
		l1.419,26.935c0.117,2.225-1.411,3.218-3.396,2.207L214.587,314.962z"/>
</g>
<g>
	<path fill="#E5E5E5" d="M145.286,81.644c-2.128,0.659-3.465-0.58-2.972-2.751l5.975-26.303c0.493-2.172,2.234-2.711,3.869-1.198
		l19.791,18.326c1.634,1.513,1.231,3.291-0.897,3.949L145.286,81.644z"/>
</g>
<g>
	<path fill="#E5E5E5" d="M56.022,152.666c-2.03-0.917-2.21-2.73-0.401-4.03l21.907-15.735c1.81-1.299,3.47-0.549,3.691,1.667
		l2.673,26.84c0.221,2.216-1.259,3.279-3.289,2.362L56.022,152.666z"/>
</g>
<g>
	<path fill="#E5E5E5" d="M785.947,483c2.228,0,3.139,1.813,2.025,3.741l-13.486,23.478c-1.114,1.929-2.937,1.987-4.051,0.059
		l-13.486-23.565c-1.113-1.929-0.202-3.712,2.025-3.712H785.947z"/>
</g>
<g>
	<path fill="#E5E5E5" d="M675.29,397.456c1.71,1.427,1.398,3.223-0.692,3.99l-25.323,9.291c-2.091,0.767-3.49-0.401-3.108-2.596
		l4.615-26.574c0.382-2.195,2.093-2.822,3.803-1.395L675.29,397.456z"/>
</g>
<g>
	<path fill="#E5E5E5" d="M600.888,478.668c1.902-1.16,3.501-0.287,3.555,1.939l0.651,26.965c0.054,2.227-1.502,3.176-3.457,2.109
		l-23.679-12.919c-1.956-1.066-2-2.889-0.098-4.049L600.888,478.668z"/>
</g>
<g>
	<path fill="#E5E5E5" d="M756.471,261.463c1.989-1.003,3.514-0.005,3.388,2.219l-1.52,26.93c-0.126,2.224-1.753,3.045-3.616,1.824
		l-22.562-14.781c-1.863-1.221-1.761-3.04,0.228-4.043L756.471,261.463z"/>
</g>
<g>
	<path fill="#E5E5E5" d="M656.803,286.923c1.679-1.464,3.403-0.873,3.831,1.313l5.187,26.469c0.428,2.186-0.945,3.383-3.053,2.661
		l-25.517-8.743c-2.107-0.722-2.457-2.511-0.778-3.975L656.803,286.923z"/>
</g>
<g>
	<path fill="#E5E5E5" d="M501.66,432.771c1.314,1.798,0.578,3.465-1.637,3.704l-26.817,2.897c-2.214,0.239-3.29-1.232-2.39-3.27
		l10.9-24.673c0.9-2.037,2.712-2.232,4.026-0.435L501.66,432.771z"/>
</g>
<g>
	<path fill="#E5E5E5" d="M436.446,484.704c1.681-1.462,3.404-0.868,3.83,1.318l5.149,26.476c0.425,2.187-0.95,3.383-3.056,2.657
		l-25.505-8.778c-2.106-0.726-2.454-2.514-0.773-3.976L436.446,484.704z"/>
</g>
<g>
	<path fill="#E5E5E5" d="M414.409,372.007c1.902-1.16,3.501-0.287,3.555,1.94l0.652,26.964c0.054,2.227-1.502,3.176-3.458,2.109
		l-23.678-12.918c-1.956-1.066-2-2.889-0.098-4.048L414.409,372.007z"/>
</g>
<g>
	<path fill="#E5E5E5" d="M324.841,426.076c1.681-1.462,3.404-0.868,3.829,1.318l5.15,26.476c0.425,2.187-0.95,3.383-3.056,2.657
		l-25.505-8.778c-2.106-0.726-2.454-2.514-0.773-3.976L324.841,426.076z"/>
</g>
<g>
	<path fill="#E5E5E5" d="M743.183,154.206c1.79-1.325,3.462-0.599,3.715,1.614l3.061,26.799c0.253,2.213-1.212,3.297-3.255,2.41
		l-24.738-10.748c-2.043-0.888-2.25-2.698-0.46-4.023L743.183,154.206z"/>
</g>
<g>
	<path fill="#E5E5E5" d="M733.199,34.486c-0.556-2.157,0.746-3.433,2.892-2.835l25.985,7.236c2.146,0.598,2.601,2.362,1.01,3.922
		l-19.259,18.885c-1.591,1.56-3.346,1.071-3.901-1.086L733.199,34.486z"/>
</g>
<g>
	<path fill="#E5E5E5" d="M626.082,217.881c1.984,1.011,2.08,2.831,0.213,4.044l-22.618,14.696c-1.867,1.213-3.491,0.387-3.608-1.838
		l-1.42-26.935c-0.117-2.225,1.411-3.218,3.396-2.207L626.082,217.881z"/>
</g>
<g>
	<path fill="#E5E5E5" d="M643.453,86.286c1.989-1.003,3.514-0.005,3.388,2.219l-1.52,26.93c-0.126,2.224-1.753,3.045-3.616,1.824
		l-22.562-14.781c-1.863-1.221-1.761-3.04,0.228-4.043L643.453,86.286z"/>
</g>
<g>
	<path fill="#E5E5E5" d="M524.007,104.681c1.679-1.463,3.403-0.873,3.832,1.313l5.186,26.47c0.428,2.186-0.945,3.383-3.052,2.661
		l-25.517-8.744c-2.107-0.722-2.458-2.511-0.778-3.974L524.007,104.681z"/>
</g>
<g>
	<path fill="#E5E5E5" d="M493.286,35.64c1.985,1.011,2.081,2.831,0.213,4.044L470.881,54.38c-1.868,1.213-3.492,0.387-3.609-1.838
		l-1.419-26.935c-0.117-2.225,1.411-3.218,3.396-2.207L493.286,35.64z"/>
</g>
<g>
	<path fill="#E5E5E5" d="M695.383,451.199c2.128-0.658,3.466,0.58,2.972,2.752l-5.974,26.302c-0.494,2.172-2.234,2.711-3.869,1.198
		l-19.792-18.325c-1.635-1.513-1.23-3.29,0.897-3.948L695.383,451.199z"/>
</g>
<g>
	<path fill="#E5E5E5" d="M784.646,380.177c2.029,0.917,2.21,2.73,0.401,4.03l-21.907,15.734c-1.809,1.299-3.47,0.549-3.69-1.667
		l-2.673-26.84c-0.221-2.216,1.26-3.279,3.289-2.362L784.646,380.177z"/>
</g>
<line fill="none" stroke="#E5E5E5" stroke-width="2.8254" stroke-linecap="round" stroke-miterlimit="10" x1="445.923" y1="124.896" x2="426.943" y2="143.876"/>
<line fill="none" stroke="#E5E5E5" stroke-width="2.8254" stroke-linecap="round" stroke-miterlimit="10" x1="445.923" y1="144.083" x2="426.943" y2="125.104"/>
<line fill="none" stroke="#E5E5E5" stroke-width="2.8254" stroke-linecap="round" stroke-miterlimit="10" x1="365.719" y1="178.932" x2="364.325" y2="205.737"/>
<line fill="none" stroke="#E5E5E5" stroke-width="2.8254" stroke-linecap="round" stroke-miterlimit="10" x1="378.563" y1="193.185" x2="351.758" y2="191.792"/>
<line fill="none" stroke="#E5E5E5" stroke-width="2.8254" stroke-linecap="round" stroke-miterlimit="10" x1="448.209" y1="193.553" x2="424.651" y2="206.42"/>
<line fill="none" stroke="#E5E5E5" stroke-width="2.8254" stroke-linecap="round" stroke-miterlimit="10" x1="442.805" y1="211.964" x2="429.939" y2="188.406"/>
<line fill="none" stroke="#E5E5E5" stroke-width="2.8254" stroke-linecap="round" stroke-miterlimit="10" x1="120.998" y1="406.734" x2="102.018" y2="425.715"/>
<line fill="none" stroke="#E5E5E5" stroke-width="2.8254" stroke-linecap="round" stroke-miterlimit="10" x1="120.998" y1="425.922" x2="102.018" y2="406.94"/>
<line fill="none" stroke="#E5E5E5" stroke-width="2.8254" stroke-linecap="round" stroke-miterlimit="10" x1="40.793" y1="460.77" x2="39.399" y2="487.575"/>
<line fill="none" stroke="#E5E5E5" stroke-width="2.8254" stroke-linecap="round" stroke-miterlimit="10" x1="53.638" y1="475.023" x2="26.832" y2="473.629"/>
<line fill="none" stroke="#E5E5E5" stroke-width="2.8254" stroke-linecap="round" stroke-miterlimit="10" x1="129.64" y1="492.344" x2="106.083" y2="505.211"/>
<line fill="none" stroke="#E5E5E5" stroke-width="2.8254" stroke-linecap="round" stroke-miterlimit="10" x1="124.236" y1="510.755" x2="111.371" y2="487.197"/>
<line fill="none" stroke="#E5E5E5" stroke-width="2.8254" stroke-linecap="round" stroke-miterlimit="10" x1="142.188" y1="148.207" x2="123.208" y2="167.187"/>
<line fill="none" stroke="#E5E5E5" stroke-width="2.8254" stroke-linecap="round" stroke-miterlimit="10" x1="142.188" y1="167.393" x2="123.208" y2="148.413"/>
<line fill="none" stroke="#E5E5E5" stroke-width="2.8254" stroke-linecap="round" stroke-miterlimit="10" x1="61.984" y1="202.242" x2="60.59" y2="229.047"/>
<line fill="none" stroke="#E5E5E5" stroke-width="2.8254" stroke-linecap="round" stroke-miterlimit="10" x1="74.829" y1="216.495" x2="48.022" y2="215.101"/>
<line fill="none" stroke="#E5E5E5" stroke-width="2.8254" stroke-linecap="round" stroke-miterlimit="10" x1="144.474" y1="216.863" x2="120.917" y2="229.729"/>
<line fill="none" stroke="#E5E5E5" stroke-width="2.8254" stroke-linecap="round" stroke-miterlimit="10" x1="139.07" y1="235.274" x2="126.205" y2="211.716"/>
<line fill="none" stroke="#E5E5E5" stroke-width="2.8254" stroke-linecap="round" stroke-miterlimit="10" x1="657.807" y1="142.581" x2="658.229" y2="169.419"/>
<line fill="none" stroke="#E5E5E5" stroke-width="2.8254" stroke-linecap="round" stroke-miterlimit="10" x1="671.585" y1="155.933" x2="644.747" y2="156.354"/>
<line fill="none" stroke="#E5E5E5" stroke-width="2.8254" stroke-linecap="round" stroke-miterlimit="10" x1="640.795" y1="237.782" x2="659.074" y2="257.437"/>
<line fill="none" stroke="#E5E5E5" stroke-width="2.8254" stroke-linecap="round" stroke-miterlimit="10" x1="659.97" y1="238.477" x2="640.313" y2="256.756"/>
<line fill="none" stroke="#E5E5E5" stroke-width="2.8254" stroke-linecap="round" stroke-miterlimit="10" x1="708.701" y1="188.719" x2="701.547" y2="214.591"/>
<line fill="none" stroke="#E5E5E5" stroke-width="2.8254" stroke-linecap="round" stroke-miterlimit="10" x1="718.161" y1="205.412" x2="692.291" y2="198.257"/>
<path fill="none" stroke="#E5E5E5" stroke-width="2.8254" stroke-linecap="round" stroke-miterlimit="10" d="M334.182,301.47
	c0,0,11.883-13.28,30.84-7.455c18.956,5.825,25.483,9.895,43.378,0"/>
<path fill="none" stroke="#E5E5E5" stroke-width="2.8254" stroke-linecap="round" stroke-miterlimit="10" d="M452.479,334.226
	c0,0,1.944-17.715,20.753-24s26.485-6.771,35.288-25.226"/>
<path fill="none" stroke="#E5E5E5" stroke-width="2.8254" stroke-linecap="round" stroke-miterlimit="10" d="M220.793,411.926
	c0,0,1.944-17.715,20.752-24c18.809-6.285,26.485-6.771,35.289-25.226"/>
<path fill="none" stroke="#E5E5E5" stroke-width="2.8254" stroke-linecap="round" stroke-miterlimit="10" d="M564.084,105.365
	c0,0,1.944-17.715,20.752-24c18.81-6.285,26.485-6.771,35.289-25.226"/>
<path fill="none" stroke="#E5E5E5" stroke-width="2.8254" stroke-linecap="round" stroke-miterlimit="10" d="M806.482,122.333
	c0,0-16.807,5.93-30.626-8.292c-13.819-14.223-17.586-20.93-38.033-20.858"/>
<path fill="none" stroke="#E5E5E5" stroke-width="2.8254" stroke-linecap="round" stroke-miterlimit="10" d="M95.177,106.793
	c0,0-16.806,5.93-30.625-8.292c-13.82-14.223-17.586-20.93-38.034-20.858"/>
<line fill="none" stroke="#E5E5E5" stroke-width="3" stroke-linecap="round" stroke-miterlimit="10" x1="263" y1="235.5" x2="303" y2="235.5"/>
<line fill="none" stroke="#E5E5E5" stroke-width="3" stroke-linecap="round" stroke-miterlimit="10" x1="142" y1="309.5" x2="182" y2="309.5"/>
<line fill="none" stroke="#E5E5E5" stroke-width="3" stroke-linecap="round" stroke-miterlimit="10" x1="592" y1="351.5" x2="631" y2="351.5"/>
<line fill="none" stroke="#E5E5E5" stroke-width="2.8254" stroke-linecap="round" stroke-miterlimit="10" x1="509.928" y1="381.36" x2="537.617" y2="353.11"/>
<line fill="none" stroke="#E5E5E5" stroke-width="2.8254" stroke-linecap="round" stroke-miterlimit="10" x1="611.91" y1="461.912" x2="643.305" y2="437.848"/>
<line fill="none" stroke="#E5E5E5" stroke-width="2.8254" stroke-linecap="round" stroke-miterlimit="10" x1="683.252" y1="341.125" x2="714.646" y2="317.06"/>
<circle fill="none" stroke="#E5E5E5" stroke-width="2.8254" stroke-linecap="round" stroke-miterlimit="10" cx="361.309" cy="341.125" r="10.571"/>
<circle fill="none" stroke="#E5E5E5" stroke-width="5.7794" stroke-linecap="round" stroke-miterlimit="10" cx="568.273" cy="285.322" r="21.624"/>
<circle fill="none" stroke="#E5E5E5" stroke-width="5.7794" stroke-linecap="round" stroke-miterlimit="10" cx="555.558" cy="435.07" r="21.623"/>
<circle fill="none" stroke="#E5E5E5" stroke-width="5.7794" stroke-linecap="round" stroke-miterlimit="10" cx="169.179" cy="359.49" r="21.623"/>
<circle fill="none" stroke="#E5E5E5" stroke-width="2.8254" stroke-linecap="round" stroke-miterlimit="10" cx="493.399" cy="169.479" r="10.571"/>
<circle fill="none" stroke="#E5E5E5" stroke-width="2.8254" stroke-linecap="round" stroke-miterlimit="10" cx="248.998" cy="171.598" r="10.571"/>
<circle fill="none" stroke="#E5E5E5" stroke-width="2.8254" stroke-linecap="round" stroke-miterlimit="10" cx="790.07" cy="445.666" r="10.571"/>
<circle fill="none" stroke="#E5E5E5" stroke-width="2.8254" stroke-linecap="round" stroke-miterlimit="10" cx="799.253" cy="317.108" r="10.571"/>
<circle fill="none" stroke="#E5E5E5" stroke-width="2.8254" stroke-linecap="round" stroke-miterlimit="10" cx="217.918" cy="466.856" r="10.571"/>
<circle fill="none" stroke="#E5E5E5" stroke-width="2.8254" stroke-linecap="round" stroke-miterlimit="10" cx="16.605" cy="330.529" r="10.571"/>
<g>
	<path fill="#E5E5E5" d="M1579.137,492c2.228,0,3.139,1.629,2.025,3.557l-13.486,23.385c-1.114,1.929-2.937,1.941-4.051,0.013
		l-13.486-23.403c-1.113-1.929-0.202-3.551,2.025-3.551H1579.137z"/>
</g>
<g>
	<path fill="#E5E5E5" d="M1468.479,406.086c1.71,1.427,1.398,3.223-0.692,3.989l-25.322,9.292c-2.091,0.767-3.49-0.401-3.109-2.596
		l4.615-26.575c0.381-2.195,2.092-2.822,3.802-1.395L1468.479,406.086z"/>
</g>
<g>
	<path fill="#E5E5E5" d="M1394.077,487.299c1.901-1.16,3.501-0.287,3.555,1.939l0.652,26.965c0.054,2.227-1.502,3.176-3.457,2.109
		l-23.679-12.919c-1.955-1.066-1.999-2.889-0.098-4.049L1394.077,487.299z"/>
</g>
<g>
	<path fill="#E5E5E5" d="M1555.311,248.903c1.989-1.003,3.514-0.005,3.388,2.219l-1.52,26.931c-0.126,2.224-1.753,3.045-3.616,1.824
		l-22.562-14.782c-1.863-1.221-1.761-3.04,0.228-4.043L1555.311,248.903z"/>
</g>
<g>
	<path fill="#E5E5E5" d="M1449.992,295.553c1.68-1.463,3.403-0.873,3.831,1.313l5.187,26.47c0.428,2.186-0.945,3.383-3.053,2.662
		l-25.518-8.744c-2.107-0.722-2.457-2.51-0.778-3.974L1449.992,295.553z"/>
</g>
<g>
	<path fill="#E5E5E5" d="M1354.89,425.156c1.314,1.798,0.578,3.465-1.637,3.704l-26.816,2.897c-2.215,0.239-3.29-1.232-2.39-3.27
		l10.899-24.674c0.9-2.037,2.712-2.232,4.026-0.435L1354.89,425.156z"/>
</g>
<g>
	<path fill="#E5E5E5" d="M1282.612,483.446c1.682-1.462,3.404-0.868,3.83,1.318l5.148,26.475c0.426,2.187-0.95,3.383-3.056,2.657
		l-25.505-8.777c-2.105-0.726-2.454-2.514-0.772-3.976L1282.612,483.446z"/>
</g>
<g>
	<path fill="#E5E5E5" d="M1536.371,162.837c1.79-1.326,3.462-0.6,3.715,1.613l3.062,26.799c0.253,2.213-1.212,3.297-3.255,2.41
		l-24.738-10.747c-2.043-0.888-2.25-2.698-0.46-4.024L1536.371,162.837z"/>
</g>
<g>
	<path fill="#E5E5E5" d="M1419.271,226.511c1.984,1.01,2.08,2.831,0.213,4.044l-22.618,14.696c-1.867,1.213-3.491,0.387-3.608-1.837
		l-1.419-26.936c-0.117-2.224,1.411-3.217,3.396-2.207L1419.271,226.511z"/>
</g>
<g>
	<path fill="#E5E5E5" d="M1488.572,459.83c2.127-0.658,3.465,0.58,2.971,2.752l-5.975,26.303c-0.493,2.172-2.233,2.711-3.868,1.197
		l-19.791-18.325c-1.635-1.514-1.23-3.291,0.897-3.949L1488.572,459.83z"/>
</g>
<g>
	<path fill="#E5E5E5" d="M1577.836,388.808c2.029,0.917,2.21,2.73,0.401,4.03l-21.908,15.734c-1.809,1.299-3.47,0.549-3.69-1.668
		l-2.672-26.839c-0.221-2.216,1.26-3.279,3.289-2.362L1577.836,388.808z"/>
</g>
<g>
	<path fill="#E5E5E5" d="M847.911,58c-2.228,0-3.139-1.576-2.024-3.505l13.486-23.358c1.113-1.929,2.936-1.928,4.049,0.001
		l13.486,23.357c1.114,1.929,0.203,3.505-2.024,3.505H847.911z"/>
</g>
<g>
	<path fill="#E5E5E5" d="M958.568,144.018c-1.71-1.427-1.398-3.223,0.692-3.99l25.323-9.29c2.091-0.767,3.49,0.4,3.108,2.595
		l-4.615,26.574c-0.382,2.195-2.093,2.822-3.803,1.395L958.568,144.018z"/>
</g>
<g>
	<path fill="#E5E5E5" d="M1032.97,62.806c-1.901,1.16-3.501,0.287-3.555-1.94l-0.651-26.965c-0.054-2.227,1.502-3.176,3.457-2.109
		l23.679,12.919c1.955,1.066,1.999,2.889,0.098,4.048L1032.97,62.806z"/>
</g>
<g>
	<path fill="#E5E5E5" d="M877.387,280.011c-1.988,1.003-3.513,0.005-3.387-2.219l1.52-26.931c0.126-2.224,1.753-3.045,3.616-1.824
		l22.562,14.781c1.863,1.221,1.761,3.04-0.229,4.043L877.387,280.011z"/>
</g>
<g>
	<path fill="#E5E5E5" d="M977.056,254.551c-1.679,1.463-3.403,0.873-3.831-1.313l-5.187-26.469
		c-0.428-2.186,0.945-3.383,3.053-2.661l25.517,8.743c2.107,0.722,2.457,2.511,0.778,3.974L977.056,254.551z"/>
</g>
<g>
	<path fill="#E5E5E5" d="M1132.199,108.702c-1.314-1.798-0.578-3.465,1.637-3.705l26.816-2.896c2.215-0.239,3.29,1.232,2.39,3.27
		l-10.9,24.672c-0.9,2.038-2.712,2.233-4.026,0.435L1132.199,108.702z"/>
</g>
<g>
	<path fill="#E5E5E5" d="M1197.412,56.77c-1.681,1.461-3.403,0.868-3.829-1.318l-5.149-26.477c-0.426-2.186,0.95-3.382,3.056-2.657
		l25.505,8.779c2.105,0.725,2.454,2.514,0.773,3.975L1197.412,56.77z"/>
</g>
<g>
	<path fill="#E5E5E5" d="M1219.449,169.466c-1.901,1.16-3.501,0.287-3.555-1.94l-0.651-26.964c-0.054-2.227,1.502-3.176,3.458-2.109
		l23.678,12.918c1.955,1.066,1.999,2.889,0.098,4.048L1219.449,169.466z"/>
</g>
<g>
	<path fill="#E5E5E5" d="M1309.018,115.397c-1.682,1.461-3.404,0.868-3.83-1.318l-5.149-26.477c-0.426-2.186,0.95-3.382,3.056-2.657
		l25.506,8.779c2.105,0.725,2.454,2.514,0.772,3.975L1309.018,115.397z"/>
</g>
<g>
	<path fill="#E5E5E5" d="M890.676,387.268c-1.79,1.325-3.462,0.599-3.715-1.614l-3.061-26.8c-0.253-2.213,1.212-3.297,3.254-2.41
		l24.74,10.749c2.042,0.888,2.249,2.698,0.459,4.023L890.676,387.268z"/>
</g>
<g>
	<path fill="#E5E5E5" d="M900.659,506.987c0.556,2.157-0.746,3.433-2.892,2.835l-25.985-7.236c-2.146-0.597-2.601-2.362-1.01-3.921
		l19.259-18.886c1.591-1.559,3.346-1.07,3.901,1.087L900.659,506.987z"/>
</g>
<g>
	<path fill="#E5E5E5" d="M1007.777,323.592c-1.985-1.01-2.081-2.831-0.214-4.044l22.618-14.696c1.867-1.213,3.491-0.387,3.608,1.837
		l1.42,26.936c0.117,2.224-1.411,3.217-3.396,2.207L1007.777,323.592z"/>
</g>
<g>
	<path fill="#E5E5E5" d="M990.405,455.188c-1.989,1.003-3.514,0.005-3.388-2.219l1.52-26.931c0.126-2.224,1.753-3.044,3.616-1.823
		l22.562,14.78c1.863,1.221,1.761,3.041-0.229,4.044L990.405,455.188z"/>
</g>
<g>
	<path fill="#E5E5E5" d="M1109.852,436.792c-1.679,1.464-3.403,0.873-3.831-1.313l-5.187-26.468
		c-0.428-2.187,0.945-3.384,3.053-2.662l25.518,8.744c2.107,0.722,2.457,2.51,0.778,3.974L1109.852,436.792z"/>
</g>
<g>
	<path fill="#E5E5E5" d="M1140.572,505.834c-1.984-1.011-2.08-2.831-0.213-4.045l22.618-14.695c1.867-1.214,3.491-0.387,3.608,1.837
		l1.419,26.936c0.117,2.224-1.411,3.217-3.396,2.206L1140.572,505.834z"/>
</g>
<g>
	<path fill="#E5E5E5" d="M938.475,90.274c-2.127,0.659-3.465-0.58-2.971-2.751l5.974-26.302c0.494-2.172,2.234-2.711,3.869-1.198
		l19.792,18.324c1.635,1.513,1.23,3.291-0.896,3.949L938.475,90.274z"/>
</g>
<g>
	<path fill="#E5E5E5" d="M849.212,161.296c-2.029-0.917-2.21-2.73-0.401-4.03l21.907-15.734c1.809-1.299,3.47-0.549,3.69,1.667
		l2.673,26.84c0.221,2.216-1.26,3.279-3.289,2.362L849.212,161.296z"/>
</g>
<line fill="none" stroke="#E5E5E5" stroke-width="2.8254" stroke-linecap="round" stroke-miterlimit="10" x1="1187.935" y1="416.577" x2="1206.915" y2="397.597"/>
<line fill="none" stroke="#E5E5E5" stroke-width="2.8254" stroke-linecap="round" stroke-miterlimit="10" x1="1187.935" y1="397.39" x2="1206.915" y2="416.37"/>
<line fill="#E5E5E5" stroke="#D0D4D6" stroke-width="2.8254" stroke-linecap="round" stroke-miterlimit="10" x1="1268.14" y1="362.542" x2="1269.533" y2="335.736"/>
<line fill="#E5E5E5" stroke="#D0D4D6" stroke-width="2.8254" stroke-linecap="round" stroke-miterlimit="10" x1="1255.295" y1="348.288" x2="1282.101" y2="349.683"/>
<line fill="none" stroke="#E5E5E5" stroke-width="2.8254" stroke-linecap="round" stroke-miterlimit="10" x1="1185.649" y1="347.921" x2="1209.207" y2="335.054"/>
<line fill="none" stroke="#E5E5E5" stroke-width="2.8254" stroke-linecap="round" stroke-miterlimit="10" x1="1191.054" y1="329.51" x2="1203.919" y2="353.067"/>
<line fill="#E5E5E5" stroke="#D0D4D6" stroke-width="2.8254" stroke-linecap="round" stroke-miterlimit="10" x1="1512.86" y1="134.739" x2="1531.841" y2="115.759"/>
<line fill="#E5E5E5" stroke="#D0D4D6" stroke-width="2.8254" stroke-linecap="round" stroke-miterlimit="10" x1="1512.86" y1="115.552" x2="1531.841" y2="134.533"/>
<line fill="#E5E5E5" stroke="#D0D4D6" stroke-width="2.8254" stroke-linecap="round" stroke-miterlimit="10" x1="1593.065" y1="80.704" x2="1594.459" y2="53.898"/>
<line fill="#E5E5E5" stroke="#D0D4D6" stroke-width="2.8254" stroke-linecap="round" stroke-miterlimit="10" x1="1580.221" y1="66.45" x2="1607.026" y2="67.845"/>
<line fill="#E5E5E5" stroke="#D0D4D6" stroke-width="2.8254" stroke-linecap="round" stroke-miterlimit="10" x1="1504.218" y1="49.13" x2="1527.775" y2="36.263"/>
<line fill="#E5E5E5" stroke="#D0D4D6" stroke-width="2.8254" stroke-linecap="round" stroke-miterlimit="10" x1="1509.622" y1="30.719" x2="1522.487" y2="54.276"/>
<line fill="#E5E5E5" stroke="#D0D4D6" stroke-width="2.8254" stroke-linecap="round" stroke-miterlimit="10" x1="1491.67" y1="393.267" x2="1510.649" y2="374.287"/>
<line fill="#E5E5E5" stroke="#D0D4D6" stroke-width="2.8254" stroke-linecap="round" stroke-miterlimit="10" x1="1491.67" y1="374.081" x2="1510.649" y2="393.061"/>
<line fill="#E5E5E5" stroke="#D0D4D6" stroke-width="2.8254" stroke-linecap="round" stroke-miterlimit="10" x1="1571.874" y1="339.231" x2="1573.269" y2="312.427"/>
<line fill="#E5E5E5" stroke="#D0D4D6" stroke-width="2.8254" stroke-linecap="round" stroke-miterlimit="10" x1="1559.03" y1="324.979" x2="1585.836" y2="326.372"/>
<line fill="#E5E5E5" stroke="#D0D4D6" stroke-width="2.8254" stroke-linecap="round" stroke-miterlimit="10" x1="1489.384" y1="324.61" x2="1512.942" y2="311.744"/>
<line fill="#E5E5E5" stroke="#D0D4D6" stroke-width="2.8254" stroke-linecap="round" stroke-miterlimit="10" x1="1494.788" y1="306.2" x2="1507.653" y2="329.757"/>
<line fill="none" stroke="#E5E5E5" stroke-width="2.8254" stroke-linecap="round" stroke-miterlimit="10" x1="976.052" y1="398.894" x2="975.63" y2="372.054"/>
<line fill="none" stroke="#E5E5E5" stroke-width="2.8254" stroke-linecap="round" stroke-miterlimit="10" x1="962.273" y1="385.54" x2="989.111" y2="385.119"/>
<line fill="none" stroke="#E5E5E5" stroke-width="2.8254" stroke-linecap="round" stroke-miterlimit="10" x1="993.063" y1="303.691" x2="974.784" y2="284.037"/>
<line fill="none" stroke="#E5E5E5" stroke-width="2.8254" stroke-linecap="round" stroke-miterlimit="10" x1="973.889" y1="302.997" x2="993.545" y2="284.718"/>
<line fill="none" stroke="#E5E5E5" stroke-width="2.8254" stroke-linecap="round" stroke-miterlimit="10" x1="925.157" y1="352.755" x2="932.312" y2="326.883"/>
<line fill="none" stroke="#E5E5E5" stroke-width="2.8254" stroke-linecap="round" stroke-miterlimit="10" x1="915.697" y1="336.062" x2="941.567" y2="343.217"/>
<path fill="#E5E5E5" stroke="#D0D4D6" stroke-width="2.8254" stroke-linecap="round" stroke-miterlimit="10" d="M1299.677,240.004
	c0,0-11.884,13.28-30.84,7.454c-18.957-5.824-25.484-9.895-43.379,0"/>
<path fill="none" stroke="#E5E5E5" stroke-width="2.8254" stroke-linecap="round" stroke-miterlimit="10" d="M1181.379,207.248
	c0,0-1.944,17.715-20.753,23.999c-18.809,6.285-26.484,6.771-35.288,25.227"/>
<path fill="#E5E5E5" stroke="#D0D4D6" stroke-width="2.8254" stroke-linecap="round" stroke-miterlimit="10" d="M1413.065,129.548
	c0,0-1.945,17.715-20.753,24c-18.81,6.285-26.485,6.771-35.288,25.227"/>
<path fill="none" stroke="#E5E5E5" stroke-width="2.8254" stroke-linecap="round" stroke-miterlimit="10" d="M1069.774,436.109
	c0,0-1.945,17.715-20.753,23.999c-18.81,6.284-26.485,6.771-35.289,25.226"/>
<path fill="none" stroke="#E5E5E5" stroke-width="2.8254" stroke-linecap="round" stroke-miterlimit="10" d="M827.376,419.141
	c0,0,16.807-5.93,30.626,8.292c13.819,14.224,17.586,20.931,38.033,20.858"/>
<path fill="#E5E5E5" stroke="#D0D4D6" stroke-width="2.8254" stroke-linecap="round" stroke-miterlimit="10" d="M1538.682,434.681
	c0,0,16.806-5.93,30.625,8.293s17.586,20.93,38.034,20.858"/>
<line fill="#E5E5E5" stroke="#D0D4D6" stroke-width="3" stroke-linecap="round" stroke-miterlimit="10" x1="1371" y1="305.5" x2="1331" y2="305.5"/>
<line fill="#E5E5E5" stroke="#D0D4D6" stroke-width="3" stroke-linecap="round" stroke-miterlimit="10" x1="1492" y1="231.5" x2="1452" y2="231.5"/>
<line fill="none" stroke="#E5E5E5" stroke-width="3" stroke-linecap="round" stroke-miterlimit="10" x1="1042" y1="189.5" x2="1003" y2="189.5"/>
<line fill="none" stroke="#E5E5E5" stroke-width="2.8254" stroke-linecap="round" stroke-miterlimit="10" x1="1123.931" y1="160.113" x2="1096.241" y2="188.363"/>
<line fill="none" stroke="#E5E5E5" stroke-width="2.8254" stroke-linecap="round" stroke-miterlimit="10" x1="1021.948" y1="79.562" x2="990.554" y2="103.626"/>
<line fill="none" stroke="#E5E5E5" stroke-width="2.8254" stroke-linecap="round" stroke-miterlimit="10" x1="950.606" y1="200.349" x2="919.212" y2="224.413"/>
<circle fill="#E5E5E5" stroke="#D0D4D6" stroke-width="2.8254" stroke-linecap="round" stroke-miterlimit="10" cx="1272.549" cy="200.349" r="10.571"/>
<circle fill="none" stroke="#E5E5E5" stroke-width="5.7794" stroke-linecap="round" stroke-miterlimit="10" cx="1065.585" cy="256.151" r="21.624"/>
<circle fill="none" stroke="#E5E5E5" stroke-width="5.7794" stroke-linecap="round" stroke-miterlimit="10" cx="1078.3" cy="106.403" r="21.623"/>
<circle fill="#E5E5E5" stroke="#D0D4D6" stroke-width="5.7794" stroke-linecap="round" stroke-miterlimit="10" cx="1464.679" cy="181.983" r="21.623"/>
<circle fill="none" stroke="#E5E5E5" stroke-width="2.8254" stroke-linecap="round" stroke-miterlimit="10" cx="1140.459" cy="371.995" r="10.571"/>
<circle fill="#E5E5E5" stroke="#D0D4D6" stroke-width="2.8254" stroke-linecap="round" stroke-miterlimit="10" cx="1384.86" cy="369.876" r="10.571"/>
<circle fill="none" stroke="#E5E5E5" stroke-width="2.8254" stroke-linecap="round" stroke-miterlimit="10" cx="843.788" cy="95.808" r="10.571"/>
<circle fill="none" stroke="#E5E5E5" stroke-width="2.8254" stroke-linecap="round" stroke-miterlimit="10" cx="834.605" cy="224.365" r="10.571"/>
<circle fill="#E5E5E5" stroke="#D0D4D6" stroke-width="2.8254" stroke-linecap="round" stroke-miterlimit="10" cx="1415.94" cy="74.617" r="10.571"/>
<circle fill="#E5E5E5" stroke="#D0D4D6" stroke-width="2.8254" stroke-linecap="round" stroke-miterlimit="10" cx="1617.253" cy="210.944" r="10.571"/>
<g>
	<path fill="#E5E5E5" d="M36.722,570c-2.228,0-3.139-1.392-2.025-3.32l13.486-23.266c1.114-1.93,2.936-1.883,4.05,0.046
		l13.486,23.196c1.114,1.929,0.203,3.344-2.025,3.344H36.722z"/>
</g>
<g>
	<path fill="#E5E5E5" d="M147.378,656.388c-1.71-1.427-1.398-3.223,0.693-3.989l25.323-9.292c2.091-0.767,3.49,0.401,3.109,2.596
		l-4.615,26.575c-0.381,2.194-2.092,2.822-3.802,1.396L147.378,656.388z"/>
</g>
<g>
	<path fill="#E5E5E5" d="M221.781,575.175c-1.902,1.16-3.501,0.287-3.555-1.939l-0.652-26.965c-0.054-2.227,1.502-3.176,3.458-2.109
		l23.678,12.919c1.956,1.066,2,2.889,0.098,4.049L221.781,575.175z"/>
</g>
<g>
	<path fill="#E5E5E5" d="M60.547,813.57c-1.989,1.004-3.513,0.005-3.388-2.219l1.52-26.932c0.125-2.224,1.752-3.044,3.616-1.823
		l22.562,14.781c1.863,1.221,1.761,3.04-0.228,4.044L60.547,813.57z"/>
</g>
<g>
	<path fill="#E5E5E5" d="M165.866,766.921c-1.679,1.464-3.403,0.873-3.832-1.313l-5.185-26.469
		c-0.428-2.187,0.945-3.384,3.052-2.662l25.517,8.744c2.107,0.722,2.458,2.51,0.778,3.974L165.866,766.921z"/>
</g>
<g>
	<path fill="#E5E5E5" d="M260.969,637.317c-1.314-1.798-0.578-3.465,1.637-3.704l26.816-2.897c2.214-0.239,3.29,1.232,2.39,3.27
		l-10.899,24.674c-0.9,2.037-2.712,2.232-4.026,0.435L260.969,637.317z"/>
</g>
<g>
	<path fill="#E5E5E5" d="M333.246,579.028c-1.681,1.462-3.404,0.868-3.829-1.318l-5.15-26.477c-0.425-2.187,0.95-3.383,3.056-2.657
		l25.505,8.778c2.106,0.726,2.454,2.514,0.773,3.976L333.246,579.028z"/>
</g>
<g>
	<path fill="#E5E5E5" d="M79.487,899.637c-1.79,1.325-3.462,0.6-3.714-1.613l-3.062-26.799c-0.252-2.213,1.212-3.297,3.255-2.41
		l24.739,10.748c2.043,0.887,2.25,2.698,0.459,4.023L79.487,899.637z"/>
</g>
<g>
	<path fill="#E5E5E5" d="M196.587,835.963c-1.985-1.011-2.081-2.831-0.213-4.045l22.617-14.695c1.868-1.214,3.492-0.387,3.609,1.837
		l1.419,26.936c0.117,2.224-1.411,3.217-3.396,2.206L196.587,835.963z"/>
</g>
<g>
	<path fill="#E5E5E5" d="M127.286,602.645c-2.128,0.658-3.465-0.58-2.972-2.752l5.975-26.303c0.493-2.172,2.234-2.711,3.869-1.197
		l19.791,18.324c1.634,1.514,1.231,3.291-0.897,3.949L127.286,602.645z"/>
</g>
<g>
	<path fill="#E5E5E5" d="M38.022,673.665c-2.03-0.917-2.21-2.73-0.401-4.029l21.907-15.734c1.81-1.299,3.47-0.549,3.691,1.668
		l2.673,26.839c0.221,2.217-1.259,3.28-3.289,2.363L38.022,673.665z"/>
</g>
<g>
	<path fill="#E5E5E5" d="M767.947,1004c2.228,0,3.139,1.813,2.025,3.741l-13.486,23.478c-1.114,1.929-2.937,1.987-4.051,0.059
		l-13.486-23.565c-1.113-1.929-0.202-3.712,2.025-3.712H767.947z"/>
</g>
<g>
	<path fill="#E5E5E5" d="M657.29,918.456c1.71,1.427,1.398,3.223-0.692,3.989l-25.323,9.291c-2.091,0.767-3.49-0.401-3.108-2.596
		l4.615-26.574c0.382-2.194,2.093-2.822,3.803-1.396L657.29,918.456z"/>
</g>
<g>
	<path fill="#E5E5E5" d="M582.888,999.668c1.902-1.16,3.501-0.287,3.555,1.939l0.651,26.965c0.054,2.227-1.502,3.176-3.458,2.109
		l-23.678-12.919c-1.956-1.066-2-2.889-0.098-4.049L582.888,999.668z"/>
</g>
<g>
	<path fill="#E5E5E5" d="M738.471,782.463c1.989-1.003,3.514-0.005,3.388,2.219l-1.52,26.932c-0.126,2.224-1.753,3.044-3.616,1.823
		l-22.562-14.78c-1.863-1.221-1.761-3.041,0.228-4.044L738.471,782.463z"/>
</g>
<g>
	<path fill="#E5E5E5" d="M638.803,807.923c1.679-1.464,3.403-0.873,3.831,1.313l5.187,26.468c0.428,2.187-0.945,3.384-3.053,2.662
		l-25.517-8.744c-2.107-0.722-2.457-2.51-0.778-3.974L638.803,807.923z"/>
</g>
<g>
	<path fill="#E5E5E5" d="M483.66,953.771c1.314,1.798,0.578,3.465-1.637,3.704l-26.817,2.897c-2.214,0.239-3.29-1.232-2.39-3.27
		l10.9-24.673c0.9-2.037,2.712-2.232,4.026-0.435L483.66,953.771z"/>
</g>
<g>
	<path fill="#E5E5E5" d="M418.446,1005.704c1.681-1.462,3.404-0.868,3.83,1.318l5.149,26.476c0.425,2.187-0.95,3.383-3.056,2.657
		l-25.505-8.778c-2.106-0.726-2.454-2.514-0.773-3.976L418.446,1005.704z"/>
</g>
<g>
	<path fill="#E5E5E5" d="M396.409,893.008c1.902-1.16,3.501-0.287,3.555,1.939l0.652,26.964c0.054,2.227-1.502,3.176-3.458,2.109
		l-23.678-12.918c-1.956-1.066-2-2.889-0.098-4.049L396.409,893.008z"/>
</g>
<g>
	<path fill="#E5E5E5" d="M306.841,947.076c1.681-1.462,3.404-0.868,3.829,1.318l5.15,26.476c0.425,2.187-0.95,3.383-3.056,2.657
		l-25.505-8.778c-2.106-0.726-2.454-2.514-0.773-3.976L306.841,947.076z"/>
</g>
<g>
	<path fill="#E5E5E5" d="M725.183,675.206c1.79-1.326,3.462-0.6,3.715,1.613l3.061,26.8c0.253,2.213-1.212,3.297-3.255,2.409
		l-24.738-10.748c-2.043-0.888-2.25-2.698-0.46-4.024L725.183,675.206z"/>
</g>
<g>
	<path fill="#E5E5E5" d="M715.199,555.486c-0.556-2.157,0.746-3.433,2.892-2.836l25.985,7.236c2.146,0.598,2.601,2.363,1.01,3.922
		l-19.259,18.885c-1.591,1.56-3.346,1.071-3.901-1.086L715.199,555.486z"/>
</g>
<g>
	<path fill="#E5E5E5" d="M608.082,738.881c1.984,1.011,2.08,2.831,0.213,4.045l-22.618,14.695c-1.868,1.214-3.492,0.387-3.609-1.837
		l-1.42-26.936c-0.117-2.224,1.411-3.217,3.396-2.206L608.082,738.881z"/>
</g>
<g>
	<path fill="#E5E5E5" d="M625.453,607.286c1.989-1.003,3.514-0.005,3.388,2.219l-1.52,26.931c-0.126,2.224-1.753,3.044-3.616,1.824
		l-22.562-14.781c-1.863-1.22-1.761-3.04,0.228-4.043L625.453,607.286z"/>
</g>
<g>
	<path fill="#E5E5E5" d="M506.007,625.681c1.679-1.464,3.403-0.873,3.832,1.313l5.186,26.469c0.428,2.187-0.945,3.384-3.052,2.662
		l-25.517-8.744c-2.107-0.722-2.458-2.51-0.778-3.974L506.007,625.681z"/>
</g>
<g>
	<path fill="#E5E5E5" d="M475.286,556.639c1.985,1.011,2.081,2.831,0.213,4.045l-22.617,14.696
		c-1.868,1.214-3.492,0.387-3.609-1.837l-1.419-26.936c-0.117-2.224,1.411-3.217,3.396-2.206L475.286,556.639z"/>
</g>
<g>
	<path fill="#E5E5E5" d="M677.383,972.199c2.128-0.658,3.466,0.58,2.972,2.752l-5.974,26.302c-0.494,2.172-2.234,2.711-3.869,1.198
		l-19.792-18.325c-1.635-1.513-1.23-3.29,0.897-3.948L677.383,972.199z"/>
</g>
<g>
	<path fill="#E5E5E5" d="M766.646,901.178c2.029,0.917,2.21,2.73,0.401,4.029l-21.907,15.734c-1.809,1.299-3.47,0.549-3.69-1.668
		l-2.673-26.839c-0.221-2.217,1.26-3.28,3.289-2.362L766.646,901.178z"/>
</g>
<line fill="none" stroke="#E5E5E5" stroke-width="2.8254" stroke-linecap="round" stroke-miterlimit="10" x1="427.923" y1="645.896" x2="408.943" y2="664.877"/>
<line fill="none" stroke="#E5E5E5" stroke-width="2.8254" stroke-linecap="round" stroke-miterlimit="10" x1="427.923" y1="665.084" x2="408.943" y2="646.104"/>
<line fill="none" stroke="#E5E5E5" stroke-width="2.8254" stroke-linecap="round" stroke-miterlimit="10" x1="347.719" y1="699.932" x2="346.325" y2="726.737"/>
<line fill="none" stroke="#E5E5E5" stroke-width="2.8254" stroke-linecap="round" stroke-miterlimit="10" x1="360.563" y1="714.186" x2="333.758" y2="712.791"/>
<line fill="none" stroke="#E5E5E5" stroke-width="2.8254" stroke-linecap="round" stroke-miterlimit="10" x1="430.209" y1="714.553" x2="406.651" y2="727.42"/>
<line fill="none" stroke="#E5E5E5" stroke-width="2.8254" stroke-linecap="round" stroke-miterlimit="10" x1="424.805" y1="732.964" x2="411.939" y2="709.406"/>
<line fill="#E5E5E5" stroke="#D0D4D6" stroke-width="2.8254" stroke-linecap="round" stroke-miterlimit="10" x1="102.998" y1="927.734" x2="84.018" y2="946.715"/>
<line fill="#E5E5E5" stroke="#D0D4D6" stroke-width="2.8254" stroke-linecap="round" stroke-miterlimit="10" x1="102.998" y1="946.922" x2="84.018" y2="927.94"/>
<line fill="#E5E5E5" stroke="#D0D4D6" stroke-width="2.8254" stroke-linecap="round" stroke-miterlimit="10" x1="22.793" y1="981.77" x2="21.399" y2="1008.575"/>
<line fill="#E5E5E5" stroke="#D0D4D6" stroke-width="2.8254" stroke-linecap="round" stroke-miterlimit="10" x1="35.638" y1="996.023" x2="8.832" y2="994.629"/>
<line fill="#E5E5E5" stroke="#D0D4D6" stroke-width="2.8254" stroke-linecap="round" stroke-miterlimit="10" x1="111.64" y1="1013.344" x2="88.083" y2="1026.211"/>
<line fill="#E5E5E5" stroke="#D0D4D6" stroke-width="2.8254" stroke-linecap="round" stroke-miterlimit="10" x1="106.236" y1="1031.755" x2="93.371" y2="1008.197"/>
<line fill="none" stroke="#E5E5E5" stroke-width="2.8254" stroke-linecap="round" stroke-miterlimit="10" x1="124.188" y1="669.207" x2="105.208" y2="688.187"/>
<line fill="none" stroke="#E5E5E5" stroke-width="2.8254" stroke-linecap="round" stroke-miterlimit="10" x1="124.188" y1="688.393" x2="105.208" y2="669.413"/>
<line fill="none" stroke="#E5E5E5" stroke-width="2.8254" stroke-linecap="round" stroke-miterlimit="10" x1="43.984" y1="723.242" x2="42.59" y2="750.047"/>
<line fill="none" stroke="#E5E5E5" stroke-width="2.8254" stroke-linecap="round" stroke-miterlimit="10" x1="56.829" y1="737.495" x2="30.022" y2="736.102"/>
<line fill="none" stroke="#E5E5E5" stroke-width="2.8254" stroke-linecap="round" stroke-miterlimit="10" x1="126.474" y1="737.863" x2="102.917" y2="750.729"/>
<line fill="none" stroke="#E5E5E5" stroke-width="2.8254" stroke-linecap="round" stroke-miterlimit="10" x1="121.07" y1="756.273" x2="108.205" y2="732.717"/>
<line fill="none" stroke="#E5E5E5" stroke-width="2.8254" stroke-linecap="round" stroke-miterlimit="10" x1="639.807" y1="663.58" x2="640.229" y2="690.42"/>
<line fill="none" stroke="#E5E5E5" stroke-width="2.8254" stroke-linecap="round" stroke-miterlimit="10" x1="653.585" y1="676.934" x2="626.747" y2="677.354"/>
<line fill="none" stroke="#E5E5E5" stroke-width="2.8254" stroke-linecap="round" stroke-miterlimit="10" x1="622.795" y1="758.782" x2="641.074" y2="778.437"/>
<line fill="none" stroke="#E5E5E5" stroke-width="2.8254" stroke-linecap="round" stroke-miterlimit="10" x1="641.97" y1="759.477" x2="622.313" y2="777.756"/>
<line fill="none" stroke="#E5E5E5" stroke-width="2.8254" stroke-linecap="round" stroke-miterlimit="10" x1="690.701" y1="709.719" x2="683.547" y2="735.591"/>
<line fill="none" stroke="#E5E5E5" stroke-width="2.8254" stroke-linecap="round" stroke-miterlimit="10" x1="700.161" y1="726.412" x2="674.291" y2="719.257"/>
<path fill="#E5E5E5" stroke="#D0D4D6" stroke-width="2.8254" stroke-linecap="round" stroke-miterlimit="10" d="M316.182,822.47
	c0,0,11.883-13.28,30.84-7.454c18.956,5.824,25.483,9.895,43.378,0"/>
<path fill="#E5E5E5" stroke="#D0D4D6" stroke-width="2.8254" stroke-linecap="round" stroke-miterlimit="10" d="M434.479,855.226
	c0,0,1.944-17.715,20.753-23.999c18.809-6.285,26.485-6.771,35.288-25.227"/>
<path fill="#E5E5E5" stroke="#D0D4D6" stroke-width="2.8254" stroke-linecap="round" stroke-miterlimit="10" d="M202.793,932.926
	c0,0,1.944-17.715,20.752-24c18.809-6.285,26.485-6.771,35.289-25.227"/>
<path fill="none" stroke="#E5E5E5" stroke-width="2.8254" stroke-linecap="round" stroke-miterlimit="10" d="M546.084,626.365
	c0,0,1.944-17.715,20.752-24c18.81-6.285,26.485-6.771,35.289-25.227"/>
<path fill="none" stroke="#E5E5E5" stroke-width="2.8254" stroke-linecap="round" stroke-miterlimit="10" d="M788.482,643.333
	c0,0-16.807,5.93-30.626-8.292c-13.819-14.224-17.586-20.93-38.033-20.859"/>
<path fill="none" stroke="#E5E5E5" stroke-width="2.8254" stroke-linecap="round" stroke-miterlimit="10" d="M77.177,627.793
	c0,0-16.806,5.93-30.625-8.293c-13.82-14.223-17.586-20.93-38.034-20.857"/>
<line fill="none" stroke="#E5E5E5" stroke-width="3" stroke-linecap="round" stroke-miterlimit="10" x1="245" y1="756.5" x2="285" y2="756.5"/>
<line fill="#E5E5E5" stroke="#D0D4D6" stroke-width="3" stroke-linecap="round" stroke-miterlimit="10" x1="124" y1="830.5" x2="164" y2="830.5"/>
<line fill="#E5E5E5" stroke="#D0D4D6" stroke-width="3" stroke-linecap="round" stroke-miterlimit="10" x1="574" y1="872.5" x2="613" y2="872.5"/>
<line fill="#E5E5E5" stroke="#D0D4D6" stroke-width="2.8254" stroke-linecap="round" stroke-miterlimit="10" x1="491.928" y1="902.36" x2="519.617" y2="874.11"/>
<line fill="#E5E5E5" stroke="#D0D4D6" stroke-width="2.8254" stroke-linecap="round" stroke-miterlimit="10" x1="593.91" y1="982.912" x2="625.305" y2="958.848"/>
<line fill="#E5E5E5" stroke="#D0D4D6" stroke-width="2.8254" stroke-linecap="round" stroke-miterlimit="10" x1="665.252" y1="862.125" x2="696.646" y2="838.061"/>
<circle fill="#E5E5E5" stroke="#D0D4D6" stroke-width="2.8254" stroke-linecap="round" stroke-miterlimit="10" cx="343.309" cy="862.125" r="10.571"/>
<circle fill="none" stroke="#E5E5E5" stroke-width="5.7794" stroke-linecap="round" stroke-miterlimit="10" cx="550.273" cy="806.322" r="21.624"/>
<circle fill="#E5E5E5" stroke="#D0D4D6" stroke-width="5.7794" stroke-linecap="round" stroke-miterlimit="10" cx="537.558" cy="956.07" r="21.623"/>
<circle fill="#E5E5E5" stroke="#D0D4D6" stroke-width="5.7794" stroke-linecap="round" stroke-miterlimit="10" cx="151.179" cy="880.49" r="21.623"/>
<circle fill="none" stroke="#E5E5E5" stroke-width="2.8254" stroke-linecap="round" stroke-miterlimit="10" cx="475.399" cy="690.479" r="10.571"/>
<circle fill="none" stroke="#E5E5E5" stroke-width="2.8254" stroke-linecap="round" stroke-miterlimit="10" cx="230.998" cy="692.598" r="10.571"/>
<circle fill="#E5E5E5" stroke="#D0D4D6" stroke-width="2.8254" stroke-linecap="round" stroke-miterlimit="10" cx="772.07" cy="966.666" r="10.571"/>
<circle fill="#E5E5E5" stroke="#D0D4D6" stroke-width="2.8254" stroke-linecap="round" stroke-miterlimit="10" cx="781.253" cy="838.108" r="10.571"/>
<circle fill="#E5E5E5" stroke="#D0D4D6" stroke-width="2.8254" stroke-linecap="round" stroke-miterlimit="10" cx="199.918" cy="987.856" r="10.571"/>
<circle fill="#E5E5E5" stroke="#D0D4D6" stroke-width="2.8254" stroke-linecap="round" stroke-miterlimit="10" cx="-1.395" cy="851.529" r="10.571"/>
<g>
	<path fill="#E5E5E5" d="M1561.137,1013c2.228,0,3.139,1.629,2.025,3.557l-13.486,23.385c-1.114,1.929-2.937,1.941-4.051,0.013
		l-13.486-23.403c-1.113-1.929-0.202-3.551,2.025-3.551H1561.137z"/>
</g>
<g>
	<path fill="#E5E5E5" d="M1450.479,927.086c1.71,1.427,1.398,3.223-0.692,3.99l-25.322,9.291c-2.091,0.767-3.49-0.401-3.109-2.596
		l4.615-26.575c0.381-2.194,2.092-2.822,3.802-1.396L1450.479,927.086z"/>
</g>
<g>
	<path fill="#E5E5E5" d="M1376.077,1008.299c1.901-1.16,3.501-0.287,3.555,1.939l0.652,26.965c0.054,2.227-1.502,3.176-3.457,2.109
		l-23.679-12.919c-1.955-1.066-1.999-2.889-0.098-4.049L1376.077,1008.299z"/>
</g>
<g>
	<path fill="#E5E5E5" d="M1537.311,769.903c1.989-1.003,3.514-0.005,3.388,2.219l-1.52,26.932c-0.126,2.224-1.753,3.044-3.616,1.823
		l-22.562-14.781c-1.863-1.221-1.761-3.041,0.228-4.044L1537.311,769.903z"/>
</g>
<g>
	<path fill="#E5E5E5" d="M1431.992,816.553c1.68-1.464,3.403-0.873,3.831,1.313l5.187,26.469c0.428,2.187-0.945,3.384-3.053,2.662
		l-25.518-8.744c-2.107-0.722-2.457-2.51-0.778-3.974L1431.992,816.553z"/>
</g>
<g>
	<path fill="#E5E5E5" d="M1336.89,946.156c1.314,1.798,0.578,3.465-1.637,3.704l-26.816,2.897c-2.215,0.239-3.29-1.232-2.39-3.27
		l10.899-24.674c0.9-2.037,2.712-2.232,4.026-0.435L1336.89,946.156z"/>
</g>
<g>
	<path fill="#E5E5E5" d="M1264.612,1004.446c1.682-1.462,3.404-0.868,3.83,1.318l5.148,26.475c0.426,2.187-0.95,3.383-3.056,2.657
		l-25.505-8.777c-2.105-0.726-2.454-2.514-0.772-3.976L1264.612,1004.446z"/>
</g>
<g>
	<path fill="#E5E5E5" d="M1518.371,683.837c1.79-1.325,3.462-0.6,3.715,1.613l3.062,26.799c0.253,2.213-1.212,3.297-3.255,2.41
		l-24.738-10.748c-2.043-0.887-2.25-2.698-0.46-4.023L1518.371,683.837z"/>
</g>
<g>
	<path fill="#E5E5E5" d="M1401.271,747.511c1.984,1.011,2.08,2.831,0.213,4.044l-22.618,14.697
		c-1.867,1.213-3.491,0.386-3.608-1.838l-1.419-26.936c-0.117-2.224,1.411-3.217,3.396-2.206L1401.271,747.511z"/>
</g>
<g>
	<path fill="#E5E5E5" d="M1470.572,980.83c2.127-0.658,3.465,0.58,2.971,2.752l-5.975,26.303c-0.493,2.172-2.233,2.711-3.868,1.197
		l-19.791-18.325c-1.635-1.514-1.23-3.291,0.897-3.949L1470.572,980.83z"/>
</g>
<g>
	<path fill="#E5E5E5" d="M1559.836,909.809c2.029,0.917,2.21,2.73,0.401,4.029l-21.908,15.734c-1.809,1.299-3.47,0.549-3.69-1.668
		l-2.672-26.839c-0.221-2.217,1.26-3.28,3.289-2.362L1559.836,909.809z"/>
</g>
<g>
	<path fill="#E5E5E5" d="M829.911,579c-2.228,0-3.139-1.576-2.024-3.504l13.486-23.359c1.113-1.929,2.936-1.929,4.049,0
		l13.486,23.358c1.114,1.929,0.203,3.505-2.024,3.505H829.911z"/>
</g>
<g>
	<path fill="#E5E5E5" d="M940.568,665.018c-1.71-1.427-1.398-3.223,0.692-3.989l25.323-9.291c2.091-0.767,3.49,0.401,3.108,2.596
		l-4.615,26.574c-0.382,2.194-2.093,2.822-3.803,1.396L940.568,665.018z"/>
</g>
<g>
	<path fill="#E5E5E5" d="M1014.97,583.806c-1.901,1.16-3.501,0.287-3.555-1.939l-0.651-26.965c-0.054-2.227,1.502-3.176,3.457-2.109
		l23.679,12.919c1.955,1.066,1.999,2.889,0.098,4.049L1014.97,583.806z"/>
</g>
<g>
	<path fill="#E5E5E5" d="M859.387,801.011c-1.988,1.003-3.513,0.005-3.387-2.219l1.52-26.932c0.126-2.224,1.753-3.044,3.616-1.823
		l22.562,14.78c1.863,1.221,1.761,3.041-0.229,4.044L859.387,801.011z"/>
</g>
<g>
	<path fill="#E5E5E5" d="M959.056,775.551c-1.679,1.464-3.403,0.873-3.831-1.313l-5.187-26.468
		c-0.428-2.187,0.945-3.384,3.053-2.662l25.517,8.744c2.107,0.722,2.457,2.51,0.778,3.974L959.056,775.551z"/>
</g>
<g>
	<path fill="#E5E5E5" d="M1114.199,629.702c-1.314-1.798-0.578-3.465,1.637-3.704l26.816-2.897c2.215-0.239,3.29,1.232,2.39,3.27
		l-10.9,24.673c-0.9,2.037-2.712,2.232-4.026,0.435L1114.199,629.702z"/>
</g>
<g>
	<path fill="#E5E5E5" d="M1179.412,577.77c-1.681,1.462-3.403,0.868-3.829-1.318l-5.149-26.476c-0.426-2.187,0.95-3.383,3.056-2.657
		l25.505,8.778c2.105,0.726,2.454,2.514,0.773,3.976L1179.412,577.77z"/>
</g>
<g>
	<path fill="#E5E5E5" d="M1201.449,690.466c-1.901,1.16-3.501,0.287-3.555-1.939l-0.651-26.964
		c-0.054-2.227,1.502-3.176,3.458-2.109l23.678,12.918c1.955,1.066,1.999,2.889,0.098,4.049L1201.449,690.466z"/>
</g>
<g>
	<path fill="#E5E5E5" d="M1291.018,636.397c-1.682,1.462-3.404,0.868-3.83-1.318l-5.149-26.476c-0.426-2.187,0.95-3.383,3.056-2.657
		l25.506,8.778c2.105,0.726,2.454,2.514,0.772,3.976L1291.018,636.397z"/>
</g>
<g>
	<path fill="#E5E5E5" d="M872.676,908.268c-1.79,1.326-3.462,0.6-3.715-1.613l-3.061-26.8c-0.253-2.213,1.212-3.297,3.254-2.409
		l24.74,10.748c2.042,0.888,2.249,2.698,0.459,4.024L872.676,908.268z"/>
</g>
<g>
	<path fill="#E5E5E5" d="M882.659,1027.987c0.556,2.157-0.746,3.433-2.892,2.835l-25.985-7.236c-2.146-0.597-2.601-2.362-1.01-3.922
		l19.259-18.885c1.591-1.559,3.346-1.07,3.901,1.087L882.659,1027.987z"/>
</g>
<g>
	<path fill="#E5E5E5" d="M989.777,844.593c-1.985-1.011-2.081-2.831-0.214-4.044l22.618-14.697c1.867-1.213,3.491-0.386,3.608,1.838
		l1.42,26.936c0.117,2.224-1.411,3.217-3.396,2.206L989.777,844.593z"/>
</g>
<g>
	<path fill="#E5E5E5" d="M972.405,976.188c-1.989,1.004-3.514,0.005-3.388-2.219l1.52-26.931c0.126-2.224,1.753-3.044,3.616-1.823
		l22.562,14.78c1.863,1.221,1.761,3.04-0.229,4.044L972.405,976.188z"/>
</g>
<g>
	<path fill="#E5E5E5" d="M1091.852,957.792c-1.679,1.464-3.403,0.873-3.831-1.313l-5.187-26.468
		c-0.428-2.187,0.945-3.384,3.053-2.662l25.518,8.744c2.107,0.722,2.457,2.51,0.778,3.974L1091.852,957.792z"/>
</g>
<g>
	<path fill="#E5E5E5" d="M1122.572,1026.834c-1.984-1.011-2.08-2.831-0.213-4.045l22.618-14.695
		c1.867-1.214,3.491-0.387,3.608,1.837l1.419,26.936c0.117,2.224-1.411,3.217-3.396,2.206L1122.572,1026.834z"/>
</g>
<g>
	<path fill="#E5E5E5" d="M920.475,611.273c-2.127,0.659-3.465-0.579-2.971-2.751l5.974-26.302c0.494-2.172,2.234-2.711,3.869-1.198
		l19.792,18.325c1.635,1.513,1.23,3.29-0.896,3.949L920.475,611.273z"/>
</g>
<g>
	<path fill="#E5E5E5" d="M831.212,682.297c-2.029-0.918-2.21-2.731-0.401-4.03l21.907-15.734c1.809-1.299,3.47-0.549,3.69,1.668
		l2.673,26.839c0.221,2.217-1.26,3.28-3.289,2.363L831.212,682.297z"/>
</g>
<line fill="#E5E5E5" stroke="#D0D4D6" stroke-width="2.8254" stroke-linecap="round" stroke-miterlimit="10" x1="1169.935" y1="937.577" x2="1188.915" y2="918.597"/>
<line fill="#E5E5E5" stroke="#D0D4D6" stroke-width="2.8254" stroke-linecap="round" stroke-miterlimit="10" x1="1169.935" y1="918.39" x2="1188.915" y2="937.37"/>
<line fill="#E5E5E5" stroke="#D0D4D6" stroke-width="2.8254" stroke-linecap="round" stroke-miterlimit="10" x1="1250.14" y1="883.542" x2="1251.533" y2="856.736"/>
<line fill="#E5E5E5" stroke="#D0D4D6" stroke-width="2.8254" stroke-linecap="round" stroke-miterlimit="10" x1="1237.295" y1="869.288" x2="1264.101" y2="870.683"/>
<line fill="#E5E5E5" stroke="#D0D4D6" stroke-width="2.8254" stroke-linecap="round" stroke-miterlimit="10" x1="1167.649" y1="868.921" x2="1191.207" y2="856.054"/>
<line fill="#E5E5E5" stroke="#D0D4D6" stroke-width="2.8254" stroke-linecap="round" stroke-miterlimit="10" x1="1173.054" y1="850.51" x2="1185.919" y2="874.067"/>
<line fill="#E5E5E5" stroke="#D0D4D6" stroke-width="2.8254" stroke-linecap="round" stroke-miterlimit="10" x1="1494.86" y1="655.739" x2="1513.841" y2="636.759"/>
<line fill="#E5E5E5" stroke="#D0D4D6" stroke-width="2.8254" stroke-linecap="round" stroke-miterlimit="10" x1="1494.86" y1="636.552" x2="1513.841" y2="655.533"/>
<line fill="#E5E5E5" stroke="#D0D4D6" stroke-width="2.8254" stroke-linecap="round" stroke-miterlimit="10" x1="1575.065" y1="601.704" x2="1576.459" y2="574.898"/>
<line fill="#E5E5E5" stroke="#D0D4D6" stroke-width="2.8254" stroke-linecap="round" stroke-miterlimit="10" x1="1562.221" y1="587.45" x2="1589.026" y2="588.845"/>
<line fill="#E5E5E5" stroke="#D0D4D6" stroke-width="2.8254" stroke-linecap="round" stroke-miterlimit="10" x1="1486.218" y1="570.13" x2="1509.775" y2="557.263"/>
<line fill="#E5E5E5" stroke="#D0D4D6" stroke-width="2.8254" stroke-linecap="round" stroke-miterlimit="10" x1="1491.622" y1="551.719" x2="1504.487" y2="575.276"/>
<line fill="#E5E5E5" stroke="#D0D4D6" stroke-width="2.8254" stroke-linecap="round" stroke-miterlimit="10" x1="1473.67" y1="914.267" x2="1492.649" y2="895.287"/>
<line fill="#E5E5E5" stroke="#D0D4D6" stroke-width="2.8254" stroke-linecap="round" stroke-miterlimit="10" x1="1473.67" y1="895.081" x2="1492.649" y2="914.061"/>
<line fill="#E5E5E5" stroke="#D0D4D6" stroke-width="2.8254" stroke-linecap="round" stroke-miterlimit="10" x1="1553.874" y1="860.231" x2="1555.269" y2="833.427"/>
<line fill="#E5E5E5" stroke="#D0D4D6" stroke-width="2.8254" stroke-linecap="round" stroke-miterlimit="10" x1="1541.03" y1="845.979" x2="1567.836" y2="847.372"/>
<line fill="#E5E5E5" stroke="#D0D4D6" stroke-width="2.8254" stroke-linecap="round" stroke-miterlimit="10" x1="1471.384" y1="845.61" x2="1494.942" y2="832.744"/>
<line fill="#E5E5E5" stroke="#D0D4D6" stroke-width="2.8254" stroke-linecap="round" stroke-miterlimit="10" x1="1476.788" y1="827.2" x2="1489.653" y2="850.757"/>
<line fill="#E5E5E5" stroke="#D0D4D6" stroke-width="2.8254" stroke-linecap="round" stroke-miterlimit="10" x1="958.052" y1="919.894" x2="957.63" y2="893.054"/>
<line fill="#E5E5E5" stroke="#D0D4D6" stroke-width="2.8254" stroke-linecap="round" stroke-miterlimit="10" x1="944.273" y1="906.54" x2="971.111" y2="906.119"/>
<line fill="#E5E5E5" stroke="#D0D4D6" stroke-width="2.8254" stroke-linecap="round" stroke-miterlimit="10" x1="975.063" y1="824.691" x2="956.784" y2="805.037"/>
<line fill="#E5E5E5" stroke="#D0D4D6" stroke-width="2.8254" stroke-linecap="round" stroke-miterlimit="10" x1="955.889" y1="823.997" x2="975.545" y2="805.718"/>
<line fill="#E5E5E5" stroke="#D0D4D6" stroke-width="2.8254" stroke-linecap="round" stroke-miterlimit="10" x1="907.157" y1="873.755" x2="914.312" y2="847.883"/>
<line fill="#E5E5E5" stroke="#D0D4D6" stroke-width="2.8254" stroke-linecap="round" stroke-miterlimit="10" x1="897.697" y1="857.062" x2="923.567" y2="864.217"/>
<path fill="#E5E5E5" stroke="#D0D4D6" stroke-width="2.8254" stroke-linecap="round" stroke-miterlimit="10" d="M1281.677,761.004
	c0,0-11.884,13.28-30.84,7.454c-18.957-5.824-25.484-9.895-43.379,0"/>
<path fill="none" stroke="#E5E5E5" stroke-width="2.8254" stroke-linecap="round" stroke-miterlimit="10" d="M1163.379,728.248
	c0,0-1.944,17.715-20.753,23.999c-18.809,6.285-26.484,6.771-35.288,25.227"/>
<path fill="#E5E5E5" stroke="#D0D4D6" stroke-width="2.8254" stroke-linecap="round" stroke-miterlimit="10" d="M1395.065,650.548
	c0,0-1.945,17.715-20.753,24c-18.81,6.285-26.485,6.771-35.288,25.227"/>
<path fill="#E5E5E5" stroke="#D0D4D6" stroke-width="2.8254" stroke-linecap="round" stroke-miterlimit="10" d="M1051.774,957.109
	c0,0-1.945,17.715-20.753,23.999c-18.81,6.284-26.485,6.771-35.289,25.226"/>
<path fill="#E5E5E5" stroke="#D0D4D6" stroke-width="2.8254" stroke-linecap="round" stroke-miterlimit="10" d="M809.376,940.141
	c0,0,16.807-5.93,30.626,8.292c13.819,14.224,17.586,20.931,38.033,20.858"/>
<path fill="#E5E5E5" stroke="#D0D4D6" stroke-width="2.8254" stroke-linecap="round" stroke-miterlimit="10" d="M1520.682,955.681
	c0,0,16.806-5.93,30.625,8.293s17.586,20.93,38.034,20.858"/>
<line fill="#E5E5E5" stroke="#D0D4D6" stroke-width="3" stroke-linecap="round" stroke-miterlimit="10" x1="1353" y1="826.5" x2="1313" y2="826.5"/>
<line fill="#E5E5E5" stroke="#D0D4D6" stroke-width="3" stroke-linecap="round" stroke-miterlimit="10" x1="1474" y1="752.5" x2="1434" y2="752.5"/>
<line fill="none" stroke="#E5E5E5" stroke-width="3" stroke-linecap="round" stroke-miterlimit="10" x1="1024" y1="710.5" x2="985" y2="710.5"/>
<line fill="none" stroke="#E5E5E5" stroke-width="2.8254" stroke-linecap="round" stroke-miterlimit="10" x1="1105.931" y1="681.113" x2="1078.241" y2="709.363"/>
<line fill="none" stroke="#E5E5E5" stroke-width="2.8254" stroke-linecap="round" stroke-miterlimit="10" x1="1003.948" y1="600.562" x2="972.554" y2="624.626"/>
<line fill="none" stroke="#E5E5E5" stroke-width="2.8254" stroke-linecap="round" stroke-miterlimit="10" x1="932.606" y1="721.349" x2="901.212" y2="745.413"/>
<circle fill="#E5E5E5" stroke="#D0D4D6" stroke-width="2.8254" stroke-linecap="round" stroke-miterlimit="10" cx="1254.549" cy="721.349" r="10.571"/>
<circle fill="none" stroke="#E5E5E5" stroke-width="5.7794" stroke-linecap="round" stroke-miterlimit="10" cx="1047.585" cy="777.151" r="21.624"/>
<circle fill="none" stroke="#E5E5E5" stroke-width="5.7794" stroke-linecap="round" stroke-miterlimit="10" cx="1060.3" cy="627.403" r="21.623"/>
<circle fill="#E5E5E5" stroke="#D0D4D6" stroke-width="5.7794" stroke-linecap="round" stroke-miterlimit="10" cx="1446.679" cy="702.983" r="21.623"/>
<circle fill="#E5E5E5" stroke="#D0D4D6" stroke-width="2.8254" stroke-linecap="round" stroke-miterlimit="10" cx="1122.459" cy="892.995" r="10.571"/>
<circle fill="#E5E5E5" stroke="#D0D4D6" stroke-width="2.8254" stroke-linecap="round" stroke-miterlimit="10" cx="1366.86" cy="890.876" r="10.571"/>
<circle fill="none" stroke="#E5E5E5" stroke-width="2.8254" stroke-linecap="round" stroke-miterlimit="10" cx="825.788" cy="616.808" r="10.571"/>
<circle fill="none" stroke="#E5E5E5" stroke-width="2.8254" stroke-linecap="round" stroke-miterlimit="10" cx="816.605" cy="745.365" r="10.571"/>
<circle fill="#E5E5E5" stroke="#D0D4D6" stroke-width="2.8254" stroke-linecap="round" stroke-miterlimit="10" cx="1397.94" cy="595.617" r="10.571"/>
<circle fill="#E5E5E5" stroke="#D0D4D6" stroke-width="2.8254" stroke-linecap="round" stroke-miterlimit="10" cx="1599.253" cy="731.944" r="10.571"/>
</svg>
